<svg xmlns="http://www.w3.org/2000/svg" viewBox="0 0 300 300"><defs><style>.cls-1{fill:#777bb3;}.cls-2{fill:#fff;}</style></defs><title>ico_php_2</title><g id="レイヤー_2" data-name="レイヤー 2"><g id="svg3430"><rect class="cls-1" width="300" height="300"/><g id="g3476"><g id="g3478"><g id="g3484"><path id="path3486" d="M64.82,164.1c7.92,0,13.78-1.46,17.5-4.3s6.25-7.72,7.62-14.66c1.27-6.45.78-10.95-1.37-13.3s-7-3.71-14.37-3.71H61.5l-7,36ZM23.47,208.48a2.33,2.33,0,0,1-1.57-.68,2.08,2.08,0,0,1-.39-1.66l18.58-95.41A2,2,0,0,1,42,109.16H82c12.61,0,21.9,3.42,27.77,10.17s7.72,16.23,5.37,28.15a45.22,45.22,0,0,1-4.79,13.4,43.11,43.11,0,0,1-8.89,11,37.81,37.81,0,0,1-14.57,8.7c-5.28,1.66-11.92,2.54-20,2.54h-16l-4.59,23.76a2,2,0,0,1-2,1.56Z"/></g><g id="g3488"><path id="path3490" class="cls-2" d="M63.15,130.08h11c8.8,0,11.83,2,12.91,3,1.76,2,2.05,6,1,11.64-1.27,6.35-3.52,10.94-6.84,13.49s-8.89,3.91-16.32,3.91H57Zm18.86-23H42a3.87,3.87,0,0,0-3.81,3.23l-18.57,95.4a3.92,3.92,0,0,0,3.81,4.7H44.28a3.87,3.87,0,0,0,3.81-3.23L52.39,185H67c8.21,0,15.15-.88,20.63-2.64a40.48,40.48,0,0,0,15.25-9.19A44.56,44.56,0,0,0,112,161.66a46.69,46.69,0,0,0,5-14c2.44-12.51.49-22.49-5.87-29.82-6.06-7-15.93-10.75-29.13-10.75m-29.81,59H64.81q12.61,0,18.77-4.7c4.1-3.12,6.84-8.4,8.31-15.83,1.37-7.14.78-12.12-1.86-15.06s-7.92-4.4-15.84-4.4H59.92l-7.72,40M82,111.12c12,0,20.83,3.13,26.3,9.48s7.14,15.15,5,26.39a42.21,42.21,0,0,1-4.59,12.81,39.84,39.84,0,0,1-8.5,10.56,36.45,36.45,0,0,1-13.89,8.31c-5.08,1.66-11.53,2.44-19.35,2.44H49.27l-4.89,25.42H23.56l18.57-95.41H82"/></g><g id="g3492"><path id="path3494" d="M162.91,183.07a2.32,2.32,0,0,1-1.56-.69,2,2,0,0,1-.39-1.66l8.21-42.23c.78-4,.59-6.94-.59-8.11-.68-.79-2.73-2-8.89-2H144.93L134.57,181.5a2,2,0,0,1-2,1.57H112a2.32,2.32,0,0,1-1.56-.69,2,2,0,0,1-.39-1.66L128.6,85.31a2,2,0,0,1,2-1.56h20.62a2.31,2.31,0,0,1,1.57.68,2,2,0,0,1,.39,1.66l-4.5,23.07h16c12.22,0,20.44,2.15,25.23,6.55s6.45,11.73,4.59,21.41l-8.6,44.38a2,2,0,0,1-2,1.57Z"/></g><g id="g3496"><path id="path3498" class="cls-2" d="M151.16,81.74H130.54A3.89,3.89,0,0,0,126.72,85l-18.57,95.41a4.13,4.13,0,0,0,.78,3.22,4,4,0,0,0,3,1.47h20.63a3.87,3.87,0,0,0,3.81-3.23l10-51.51h13.3c6.16,0,7.43,1.27,7.43,1.37.39.39.88,2.24.09,6.45L159,180.38a4.14,4.14,0,0,0,.79,3.22,4.09,4.09,0,0,0,3,1.47h20.92a3.89,3.89,0,0,0,3.81-3.23l8.6-44.38c2.05-10.46.29-18.28-5.18-23.26-5.18-4.79-13.88-7-26.59-7h-13.3l4-20.73a4.09,4.09,0,0,0-.78-3.22,4.31,4.31,0,0,0-3.13-1.47m0,3.91-4.89,25.42h18.38c11.54,0,19.55,2.05,23.95,6.06s5.67,10.56,3.91,19.65l-8.6,44.38h-21l8.21-42.23c1-4.79.59-8.11-1.07-9.87s-5.08-2.64-10.36-2.64H143.24l-10.55,54.74H112.06l18.57-95.41h20.53"/></g><g id="g3500"><path id="path3502" d="M227.11,164.1c7.92,0,13.78-1.46,17.5-4.3s6.25-7.72,7.62-14.66c1.27-6.45.78-10.95-1.37-13.3s-7-3.71-14.37-3.71H223.78l-7,36Zm-41.35,44.38a2.31,2.31,0,0,1-1.57-.68,2,2,0,0,1-.39-1.66l18.58-95.41a2,2,0,0,1,2-1.57h40c12.61,0,21.9,3.42,27.76,10.17s7.73,16.23,5.38,28.15a45.5,45.5,0,0,1-4.79,13.4,43.11,43.11,0,0,1-8.89,11,37.88,37.88,0,0,1-14.57,8.7c-5.28,1.66-11.93,2.54-20,2.54H212.93l-4.59,23.76a2,2,0,0,1-2,1.56Z"/></g><g id="g3504"><path id="path3506" class="cls-2" d="M225.43,130.08h11c8.8,0,11.83,2,12.9,3,1.76,2,2.06,6,1,11.64-1.27,6.35-3.52,10.94-6.84,13.49s-8.9,3.91-16.33,3.91h-7.91Zm18.87-23h-40a3.87,3.87,0,0,0-3.81,3.23l-18.58,95.4a4.15,4.15,0,0,0,.79,3.23,4.09,4.09,0,0,0,3,1.47h20.82a3.87,3.87,0,0,0,3.81-3.23l4.3-22.19h14.67c8.21,0,15.15-.88,20.62-2.64a40.48,40.48,0,0,0,15.25-9.19,44.81,44.81,0,0,0,9.19-11.53,46.69,46.69,0,0,0,5-14c2.44-12.51.48-22.49-5.87-29.82-6.26-7-16-10.75-29.23-10.75m-29.91,59H227.1q12.6,0,18.77-4.7c4.1-3.12,6.84-8.4,8.3-15.83,1.37-7.14.79-12.12-1.85-15.06s-7.92-4.4-15.84-4.4H222.21l-7.82,40m29.91-54.94c12,0,20.82,3.13,26.3,9.48s7.13,15.15,5,26.39A42.48,42.48,0,0,1,271,159.8a39.68,39.68,0,0,1-8.51,10.56,36.34,36.34,0,0,1-13.88,8.31c-5.08,1.66-11.53,2.44-19.35,2.44H211.46l-4.89,25.42H185.75l18.57-95.41h40"/></g></g></g></g></g></svg>