<svg xmlns="http://www.w3.org/2000/svg" viewBox="0 0 173.79 197.09"><defs><style>.cls-1{fill:#264de4;}.cls-2{fill:#2965f1;}.cls-3{fill:#ebebeb;}.cls-4{fill:#fff;}</style></defs><title>ico_css</title><g id="レイヤー_2" data-name="レイヤー 2"><g id="Layer_1" data-name="Layer 1"><path class="cls-1" d="M86.79,197.09l-71-19.7L0,0H173.79L158,177.36,86.79,197.09Z"/><path class="cls-2" d="M144.4,166.07,157.93,14.5h-71V182l57.51-15.94Z"/><path class="cls-3" d="M36.26,80.3l2,21.75H86.89V80.3Zm-3.92-44,2,21.76H86.89V36.26ZM86.89,136.8l-.09,0-24.23-6.54L61,112.93H39.18l3,34.16,44.56,12.37.1,0Z"/><path class="cls-4" d="M137.39,80.3l3.93-44H86.82V58h30.65l-2,22.28H86.82v21.75h26.79l-2.53,28.22-24.26,6.55v22.63l44.6-12.36.33-3.68,5.11-57.27.53-5.84Z"/></g></g></svg>