<svg xmlns="http://www.w3.org/2000/svg" viewBox="0 0 83.03 79.99"><defs><style>.cls-1{fill:#0868ac;}</style></defs><title>アセット 2</title><g id="レイヤー_2" data-name="レイヤー 2"><g id="レイヤー_1-2" data-name="レイヤー 1"><path class="cls-1" d="M5.27,18.79C-2.08,29.35-1.16,43.1,4.45,54.33l.41.79.27.51.16.29.29.53.54.91.31.51.62,1,.26.41.9,1.3,0,0,.15.21c.27.37.54.73.82,1.09l.31.4.76.93.29.35c.35.4.7.81,1.06,1.2l0,0,0,0c.35.38.71.76,1.08,1.13l.34.35c.28.29.57.56.86.84l.35.34,1.17,1.07h0l.21.18,1.07.9.44.35c.29.24.59.47.89.7l.47.36,1,.72L20,72l.1.08,1,.64.42.28c.5.31,1,.63,1.52.93l.42.23c.37.22.75.44,1.14.64l.63.33.81.42.19.09.34.17c.42.2.85.4,1.29.59l.27.13,1.51.62.37.15,1.42.53.18.06,1.59.52.38.11a13.3,13.3,0,0,0,1.64.46C70.7,85.5,81,57.65,81,57.65,72.35,69,57,71.93,42.37,68.61c-.55-.12-1.09-.3-1.63-.46l-.4-.12c-.53-.16-1.05-.33-1.57-.51l-.22-.08q-.69-.24-1.38-.51l-.39-.15-1.49-.62L35,66l-1.25-.59-.37-.17c-.33-.16-.65-.33-1-.5l-.65-.34c-.4-.21-.78-.43-1.17-.65l-.39-.22c-.52-.31-1-.62-1.52-.94l-.41-.27q-.56-.35-1.08-.72l-.35-.24c-.35-.24-.69-.49-1-.74l-.46-.34-.92-.72L24,59.26l-1.15-1-.13-.11c-.4-.36-.81-.73-1.2-1.1l-.34-.32c-.3-.28-.59-.57-.87-.86L20,55.56c-.36-.37-.72-.74-1.07-1.12l-.05-.06q-.56-.6-1.08-1.23l-.28-.33q-.41-.48-.78-1l-.28-.36c-.31-.4-.61-.79-.9-1.19C7.45,39.26,4.54,24,11,11.51M28.09,9.88c-5.31,7.65-5,17.9-.88,26a35.34,35.34,0,0,0,2.35,3.92,18.53,18.53,0,0,0,2.74,3.42c.38.42.79.83,1.19,1.24l.32.31c.4.38.8.76,1.22,1.13l0,0v0c.46.4.94.79,1.42,1.17l.32.26c.49.37,1,.73,1.49,1.08l0,0,.68.44.32.22c.36.23.73.46,1.1.67l.16.09,1,.55.35.18.68.35.11,0c.46.23.94.45,1.42.66l.31.13,1.17.48.5.18,1.07.37.49.16a11.5,11.5,0,0,0,1.55.45C76.7,58,83,36.89,83,36.89,77.32,45.12,66.26,49,54.45,46c-.52-.14-1-.29-1.55-.45l-.47-.15L51.34,45l-.49-.18-1.17-.47-.31-.14q-.73-.32-1.44-.66l-.71-.37L46.8,43l-.91-.51-.21-.13c-.38-.21-.74-.44-1.1-.67l-.34-.22L43.53,41c-.5-.35-1-.72-1.48-1.09l-.34-.26a33.18,33.18,0,0,1-11.21-16A24.79,24.79,0,0,1,32.44,3.75m14.85-.52A16,16,0,0,0,46,18.67,21.7,21.7,0,0,0,58.5,30.33l.68.23.3.1a7.89,7.89,0,0,0,1,.28c15.15,2.93,19.26-7.77,20.36-9.35-3.6,5.18-9.65,6.43-17.08,4.63-.59-.15-1.23-.36-1.8-.56a20.82,20.82,0,0,1-2.13-.89,21.61,21.61,0,0,1-3.74-2.28C49.42,17.45,45.3,7.83,49.63,0"/></g></g></svg>