<svg xmlns="http://www.w3.org/2000/svg" viewBox="0 0 173.79 197.09"><defs><style>.cls-1{fill:#e44d26;}.cls-2{fill:#f16529;}.cls-3{fill:#ebebeb;}.cls-4{fill:#fff;}</style></defs><title>ico_html5_1</title><g id="レイヤー_2" data-name="レイヤー 2"><g id="Layer_1" data-name="Layer 1"><path class="cls-1" d="M173.79,0,158,177.36,86.79,197.09l-71-19.7L0,0Z"/><path class="cls-2" d="M86.89,182l57.51-15.94L157.93,14.5h-71Z"/><path class="cls-3" d="M56.12,58H86.89V36.26H32.34l.52,5.84,5.35,60H86.89V80.3H58.1ZM61,112.93H39.18l3,34.16,44.56,12.37.1,0V136.8l-.09,0-24.23-6.54L61,112.93Z"/><path class="cls-4" d="M86.82,102.05h26.79l-2.53,28.22-24.26,6.55v22.63l44.6-12.36.33-3.68,5.11-57.27.53-5.84H86.82v21.75Zm0-44.09V58h52.55l.44-4.89,1-11,.52-5.84H86.82V58Z"/></g></g></svg>